<mxfile host="app.diagrams.net" agent="Mozilla/5.0 (Macintosh; Intel Mac OS X 10_15_7) AppleWebKit/605.1.15 (KHTML, like Gecko) Version/17.6 Safari/605.1.15" version="28.2.0">
  <diagram name="Page-1" id="iNCw5bwThRztruOrCBxP">
    <mxGraphModel dx="580" dy="825" grid="1" gridSize="10" guides="1" tooltips="1" connect="1" arrows="1" fold="1" page="1" pageScale="1" pageWidth="827" pageHeight="1169" background="light-dark(#FFFFFF, #7a7a7a)" math="0" shadow="0">
      <root>
        <mxCell id="0" />
        <mxCell id="1" parent="0" />
        <mxCell id="9-fQhF7asw0KaCt_HwtO-16" value="Airport" style="swimlane;childLayout=stackLayout;horizontal=1;startSize=50;horizontalStack=0;rounded=1;fontSize=14;fontStyle=0;strokeWidth=2;resizeParent=0;resizeLast=1;shadow=0;dashed=0;align=center;arcSize=4;whiteSpace=wrap;html=1;strokeColor=light-dark(#000000,#000000);fillColor=#76608a;fontColor=#ffffff;" parent="1" vertex="1">
          <mxGeometry x="499.38" y="70" width="170" height="180" as="geometry" />
        </mxCell>
        <mxCell id="9-fQhF7asw0KaCt_HwtO-17" value="&lt;span&gt;airport_id&lt;/span&gt;&lt;div&gt;&lt;span&gt;airport_name&lt;br&gt;country&lt;/span&gt;&lt;/div&gt;&lt;div&gt;&lt;span&gt;state&lt;/span&gt;&lt;/div&gt;&lt;div&gt;&lt;span&gt;city&lt;/span&gt;&lt;/div&gt;&lt;div&gt;&lt;span&gt;created_at&lt;/span&gt;&lt;/div&gt;&lt;div&gt;&lt;span&gt;updated_at&lt;/span&gt;&lt;/div&gt;" style="align=left;strokeColor=none;fillColor=none;spacingLeft=4;spacingRight=4;fontSize=12;verticalAlign=top;resizable=0;rotatable=0;part=1;html=1;whiteSpace=wrap;" parent="9-fQhF7asw0KaCt_HwtO-16" vertex="1">
          <mxGeometry y="50" width="170" height="130" as="geometry" />
        </mxCell>
        <mxCell id="iStFz8ke6UmWjR3rKBuK-9" value="Airline" style="swimlane;childLayout=stackLayout;horizontal=1;startSize=50;horizontalStack=0;rounded=1;fontSize=14;fontStyle=0;strokeWidth=2;resizeParent=0;resizeLast=1;shadow=0;dashed=0;align=center;arcSize=4;whiteSpace=wrap;html=1;strokeColor=light-dark(#432D57,#000000);fillColor=#76608a;fontColor=#ffffff;" vertex="1" parent="1">
          <mxGeometry x="1036.88" y="70" width="170" height="150" as="geometry" />
        </mxCell>
        <mxCell id="iStFz8ke6UmWjR3rKBuK-10" value="&lt;span style=&quot;color: light-dark(rgb(0, 0, 0), rgb(255, 255, 255));&quot;&gt;airline_id&lt;/span&gt;&lt;div&gt;&lt;span style=&quot;color: light-dark(rgb(0, 0, 0), rgb(255, 255, 255));&quot;&gt;&lt;font&gt;&lt;span style=&quot;caret-color: rgb(0, 0, 0);&quot;&gt;airline_cod&lt;/span&gt;&lt;/font&gt;&lt;span style=&quot;caret-color: rgb(237, 237, 237);&quot;&gt;e&lt;/span&gt;&lt;/span&gt;&lt;/div&gt;&lt;div&gt;&lt;span style=&quot;caret-color: rgb(237, 237, 237); color: light-dark(rgb(0, 0, 0), rgb(255, 255, 255));&quot;&gt;name&lt;/span&gt;&lt;/div&gt;&lt;div&gt;&lt;span style=&quot;color: light-dark(rgb(0, 0, 0), rgb(255, 255, 255));&quot;&gt;country&lt;/span&gt;&lt;/div&gt;&lt;div&gt;&lt;span style=&quot;color: light-dark(rgb(0, 0, 0), rgb(255, 255, 255));&quot;&gt;created_at&lt;/span&gt;&lt;/div&gt;&lt;div&gt;&lt;span style=&quot;color: light-dark(rgb(0, 0, 0), rgb(255, 255, 255));&quot;&gt;updated_at&lt;/span&gt;&lt;/div&gt;" style="align=left;strokeColor=none;fillColor=none;spacingLeft=4;spacingRight=4;fontSize=12;verticalAlign=top;resizable=0;rotatable=0;part=1;html=1;whiteSpace=wrap;" vertex="1" parent="iStFz8ke6UmWjR3rKBuK-9">
          <mxGeometry y="50" width="170" height="100" as="geometry" />
        </mxCell>
        <mxCell id="iStFz8ke6UmWjR3rKBuK-11" value="Flight" style="swimlane;childLayout=stackLayout;horizontal=1;startSize=50;horizontalStack=0;rounded=1;fontSize=14;fontStyle=0;strokeWidth=2;resizeParent=0;resizeLast=1;shadow=0;dashed=0;align=center;arcSize=4;whiteSpace=wrap;html=1;strokeColor=light-dark(#000000,#000000);fillColor=#76608a;fontColor=#ffffff;" vertex="1" parent="1">
          <mxGeometry x="769.88" y="70" width="170" height="230" as="geometry" />
        </mxCell>
        <mxCell id="iStFz8ke6UmWjR3rKBuK-12" value="&lt;div&gt;&lt;span style=&quot;color: light-dark(rgb(0, 0, 0), rgb(255, 255, 255));&quot;&gt;flight_id&lt;/span&gt;&lt;/div&gt;&lt;span style=&quot;color: light-dark(rgb(0, 0, 0), rgb(255, 255, 255));&quot;&gt;airline_id&lt;/span&gt;&lt;div&gt;&lt;font&gt;&lt;span style=&quot;caret-color: rgb(237, 237, 237); color: light-dark(rgb(0, 0, 0), rgb(255, 255, 255));&quot;&gt;departure_airport_id&lt;/span&gt;&lt;/font&gt;&lt;/div&gt;&lt;div&gt;&lt;span style=&quot;color: light-dark(rgb(0, 0, 0), rgb(255, 255, 255));&quot;&gt;arrival_airport_id&lt;/span&gt;&lt;/div&gt;&lt;div&gt;&lt;span style=&quot;color: light-dark(rgb(0, 0, 0), rgb(255, 255, 255));&quot;&gt;departing_gate&lt;/span&gt;&lt;/div&gt;&lt;div&gt;&lt;span style=&quot;color: light-dark(rgb(0, 0, 0), rgb(255, 255, 255));&quot;&gt;arriving_gate&lt;/span&gt;&lt;/div&gt;&lt;div&gt;&lt;span style=&quot;color: light-dark(rgb(0, 0, 0), rgb(255, 255, 255));&quot;&gt;scheduled_departure&lt;/span&gt;&lt;/div&gt;&lt;div&gt;&lt;span style=&quot;color: light-dark(rgb(0, 0, 0), rgb(255, 255, 255));&quot;&gt;scheduled_arrival&lt;/span&gt;&lt;/div&gt;&lt;div&gt;&lt;span style=&quot;color: light-dark(rgb(0, 0, 0), rgb(255, 255, 255));&quot;&gt;actual_departure&lt;/span&gt;&lt;/div&gt;&lt;div&gt;&lt;span style=&quot;color: light-dark(rgb(0, 0, 0), rgb(255, 255, 255));&quot;&gt;actual_arrival&lt;/span&gt;&lt;/div&gt;&lt;div&gt;&lt;span style=&quot;color: light-dark(rgb(0, 0, 0), rgb(255, 255, 255));&quot;&gt;created_at&lt;/span&gt;&lt;/div&gt;&lt;div&gt;&lt;span style=&quot;color: light-dark(rgb(0, 0, 0), rgb(255, 255, 255));&quot;&gt;updated_at&lt;/span&gt;&lt;/div&gt;" style="align=left;strokeColor=none;fillColor=none;spacingLeft=4;spacingRight=4;fontSize=12;verticalAlign=top;resizable=0;rotatable=0;part=1;html=1;whiteSpace=wrap;" vertex="1" parent="iStFz8ke6UmWjR3rKBuK-11">
          <mxGeometry y="50" width="170" height="180" as="geometry" />
        </mxCell>
        <mxCell id="iStFz8ke6UmWjR3rKBuK-15" value="Passenger" style="swimlane;childLayout=stackLayout;horizontal=1;startSize=50;horizontalStack=0;rounded=1;fontSize=14;fontStyle=0;strokeWidth=2;resizeParent=0;resizeLast=1;shadow=0;dashed=0;align=center;arcSize=4;whiteSpace=wrap;html=1;strokeColor=light-dark(#432D57,#000000);fillColor=#76608a;fontColor=#ffffff;" vertex="1" parent="1">
          <mxGeometry x="623.88" y="380" width="170" height="230" as="geometry" />
        </mxCell>
        <mxCell id="iStFz8ke6UmWjR3rKBuK-16" value="&lt;div&gt;&lt;font color=&quot;#000000&quot;&gt;&lt;span style=&quot;caret-color: rgb(0, 0, 0);&quot;&gt;passenger_id&lt;/span&gt;&lt;/font&gt;&lt;/div&gt;&lt;div&gt;&lt;font color=&quot;#000000&quot;&gt;&lt;span style=&quot;caret-color: rgb(0, 0, 0);&quot;&gt;first_name&lt;/span&gt;&lt;/font&gt;&lt;/div&gt;&lt;div&gt;&lt;font color=&quot;#000000&quot;&gt;&lt;span style=&quot;caret-color: rgb(0, 0, 0);&quot;&gt;last_name&lt;/span&gt;&lt;/font&gt;&lt;/div&gt;&lt;div&gt;&lt;font color=&quot;#000000&quot;&gt;&lt;span style=&quot;caret-color: rgb(0, 0, 0);&quot;&gt;gender&lt;/span&gt;&lt;/font&gt;&lt;/div&gt;&lt;div&gt;&lt;font color=&quot;#000000&quot;&gt;&lt;span style=&quot;caret-color: rgb(0, 0, 0);&quot;&gt;date_of_birth&lt;/span&gt;&lt;/font&gt;&lt;/div&gt;&lt;div&gt;&lt;font color=&quot;#000000&quot;&gt;&lt;span style=&quot;caret-color: rgb(0, 0, 0);&quot;&gt;country_of_citizenship&lt;/span&gt;&lt;/font&gt;&lt;/div&gt;&lt;div&gt;&lt;font color=&quot;#000000&quot;&gt;&lt;span style=&quot;caret-color: rgb(0, 0, 0);&quot;&gt;country_of_residence&lt;/span&gt;&lt;/font&gt;&lt;/div&gt;&lt;div&gt;&lt;font color=&quot;#000000&quot;&gt;&lt;span style=&quot;caret-color: rgb(0, 0, 0);&quot;&gt;passport_number&lt;/span&gt;&lt;/font&gt;&lt;/div&gt;&lt;div&gt;&lt;font color=&quot;#000000&quot;&gt;&lt;span style=&quot;caret-color: rgb(0, 0, 0);&quot;&gt;created_at&lt;/span&gt;&lt;/font&gt;&lt;/div&gt;&lt;div&gt;&lt;font color=&quot;#000000&quot;&gt;&lt;span style=&quot;caret-color: rgb(0, 0, 0);&quot;&gt;updated_at&lt;/span&gt;&lt;/font&gt;&lt;/div&gt;" style="align=left;strokeColor=none;fillColor=none;spacingLeft=4;spacingRight=4;fontSize=12;verticalAlign=top;resizable=0;rotatable=0;part=1;html=1;whiteSpace=wrap;" vertex="1" parent="iStFz8ke6UmWjR3rKBuK-15">
          <mxGeometry y="50" width="170" height="180" as="geometry" />
        </mxCell>
        <mxCell id="iStFz8ke6UmWjR3rKBuK-17" value="Booking" style="swimlane;childLayout=stackLayout;horizontal=1;startSize=50;horizontalStack=0;rounded=1;fontSize=14;fontStyle=0;strokeWidth=2;resizeParent=0;resizeLast=1;shadow=0;dashed=0;align=center;arcSize=4;whiteSpace=wrap;html=1;strokeColor=light-dark(#432D57,#000000);fillColor=#76608a;fontColor=#ffffff;" vertex="1" parent="1">
          <mxGeometry x="939.88" y="380" width="170" height="170" as="geometry" />
        </mxCell>
        <mxCell id="iStFz8ke6UmWjR3rKBuK-18" value="&lt;div&gt;&lt;font&gt;&lt;span style=&quot;caret-color: rgb(237, 237, 237); color: light-dark(rgb(0, 0, 0), rgb(255, 255, 255));&quot;&gt;booking_id&lt;/span&gt;&lt;/font&gt;&lt;/div&gt;&lt;div&gt;&lt;font&gt;&lt;span style=&quot;caret-color: rgb(237, 237, 237); color: light-dark(rgb(0, 0, 0), rgb(255, 255, 255));&quot;&gt;flight_id&lt;/span&gt;&lt;/font&gt;&lt;/div&gt;&lt;div&gt;&lt;font&gt;&lt;span style=&quot;caret-color: rgb(237, 237, 237); color: light-dark(rgb(0, 0, 0), rgb(255, 255, 255));&quot;&gt;passenger_id&lt;/span&gt;&lt;/font&gt;&lt;/div&gt;&lt;div&gt;&lt;font&gt;&lt;span style=&quot;caret-color: rgb(237, 237, 237); color: light-dark(rgb(0, 0, 0), rgb(255, 255, 255));&quot;&gt;booking_platform&lt;/span&gt;&lt;/font&gt;&lt;/div&gt;&lt;div&gt;&lt;font&gt;&lt;span style=&quot;caret-color: rgb(237, 237, 237); color: light-dark(rgb(0, 0, 0), rgb(255, 255, 255));&quot;&gt;status&lt;/span&gt;&lt;/font&gt;&lt;/div&gt;&lt;div&gt;&lt;font&gt;&lt;span style=&quot;caret-color: rgb(237, 237, 237); color: light-dark(rgb(0, 0, 0), rgb(255, 255, 255));&quot;&gt;ticket_price&lt;/span&gt;&lt;/font&gt;&lt;/div&gt;&lt;div&gt;&lt;font&gt;&lt;span style=&quot;caret-color: rgb(237, 237, 237); color: light-dark(rgb(0, 0, 0), rgb(255, 255, 255));&quot;&gt;created_at&lt;/span&gt;&lt;/font&gt;&lt;/div&gt;&lt;div&gt;&lt;font&gt;&lt;span style=&quot;caret-color: rgb(237, 237, 237); color: light-dark(rgb(0, 0, 0), rgb(255, 255, 255));&quot;&gt;updated_at&lt;/span&gt;&lt;/font&gt;&lt;/div&gt;" style="align=left;strokeColor=none;fillColor=none;spacingLeft=4;spacingRight=4;fontSize=12;verticalAlign=top;resizable=0;rotatable=0;part=1;html=1;whiteSpace=wrap;" vertex="1" parent="iStFz8ke6UmWjR3rKBuK-17">
          <mxGeometry y="50" width="170" height="120" as="geometry" />
        </mxCell>
        <mxCell id="iStFz8ke6UmWjR3rKBuK-19" value="Booking_Change" style="swimlane;childLayout=stackLayout;horizontal=1;startSize=50;horizontalStack=0;rounded=1;fontSize=14;fontStyle=0;strokeWidth=2;resizeParent=0;resizeLast=1;shadow=0;dashed=0;align=center;arcSize=4;whiteSpace=wrap;html=1;strokeColor=light-dark(#432D57,#000000);fillColor=#76608a;fontColor=#ffffff;" vertex="1" parent="1">
          <mxGeometry x="390" y="730" width="170" height="120" as="geometry" />
        </mxCell>
        <mxCell id="iStFz8ke6UmWjR3rKBuK-20" value="&lt;div&gt;&lt;font color=&quot;#212121&quot;&gt;&lt;span style=&quot;caret-color: rgb(33, 33, 33);&quot;&gt;change_id&lt;/span&gt;&lt;/font&gt;&lt;/div&gt;&lt;div&gt;&lt;font color=&quot;#212121&quot;&gt;&lt;span style=&quot;caret-color: rgb(33, 33, 33);&quot;&gt;booking_id&lt;/span&gt;&lt;/font&gt;&lt;/div&gt;&lt;div&gt;&lt;font color=&quot;#212121&quot;&gt;&lt;span style=&quot;caret-color: rgb(33, 33, 33);&quot;&gt;change_description&lt;/span&gt;&lt;/font&gt;&lt;/div&gt;&lt;div&gt;&lt;font color=&quot;#212121&quot;&gt;&lt;span style=&quot;caret-color: rgb(33, 33, 33);&quot;&gt;changed_at&lt;/span&gt;&lt;/font&gt;&lt;br&gt;&lt;/div&gt;" style="align=left;strokeColor=none;fillColor=none;spacingLeft=4;spacingRight=4;fontSize=12;verticalAlign=top;resizable=0;rotatable=0;part=1;html=1;whiteSpace=wrap;" vertex="1" parent="iStFz8ke6UmWjR3rKBuK-19">
          <mxGeometry y="50" width="170" height="70" as="geometry" />
        </mxCell>
        <mxCell id="iStFz8ke6UmWjR3rKBuK-21" value="Boarding_Pass" style="swimlane;childLayout=stackLayout;horizontal=1;startSize=50;horizontalStack=0;rounded=1;fontSize=14;fontStyle=0;strokeWidth=2;resizeParent=0;resizeLast=1;shadow=0;dashed=0;align=center;arcSize=4;whiteSpace=wrap;html=1;strokeColor=light-dark(#432D57,#000000);fillColor=#76608a;fontColor=#ffffff;" vertex="1" parent="1">
          <mxGeometry x="579.5" y="730" width="170" height="140" as="geometry" />
        </mxCell>
        <mxCell id="iStFz8ke6UmWjR3rKBuK-22" value="&lt;div&gt;&lt;font&gt;&lt;span style=&quot;caret-color: rgb(209, 209, 209); color: light-dark(rgb(255, 255, 255), rgb(255, 255, 255));&quot;&gt;boarding_pass_id&lt;/span&gt;&lt;/font&gt;&lt;/div&gt;&lt;div&gt;&lt;font&gt;&lt;span style=&quot;caret-color: rgb(209, 209, 209); color: light-dark(rgb(255, 255, 255), rgb(255, 255, 255));&quot;&gt;booking_id&lt;/span&gt;&lt;/font&gt;&lt;/div&gt;&lt;div&gt;&lt;font&gt;&lt;span style=&quot;caret-color: rgb(209, 209, 209); color: light-dark(rgb(255, 255, 255), rgb(255, 255, 255));&quot;&gt;seat&lt;/span&gt;&lt;/font&gt;&lt;/div&gt;&lt;div&gt;&lt;font&gt;&lt;span style=&quot;caret-color: rgb(209, 209, 209); color: light-dark(rgb(255, 255, 255), rgb(255, 255, 255));&quot;&gt;boarding_time&lt;/span&gt;&lt;/font&gt;&lt;/div&gt;&lt;div&gt;&lt;font&gt;&lt;span style=&quot;caret-color: rgb(209, 209, 209); color: light-dark(rgb(255, 255, 255), rgb(255, 255, 255));&quot;&gt;created_at&lt;/span&gt;&lt;/font&gt;&lt;/div&gt;&lt;div&gt;&lt;font&gt;&lt;span style=&quot;caret-color: rgb(209, 209, 209); color: light-dark(rgb(255, 255, 255), rgb(255, 255, 255));&quot;&gt;updated_at&lt;/span&gt;&lt;/font&gt;&lt;/div&gt;" style="align=left;strokeColor=none;fillColor=none;spacingLeft=4;spacingRight=4;fontSize=12;verticalAlign=top;resizable=0;rotatable=0;part=1;html=1;whiteSpace=wrap;" vertex="1" parent="iStFz8ke6UmWjR3rKBuK-21">
          <mxGeometry y="50" width="170" height="90" as="geometry" />
        </mxCell>
        <mxCell id="iStFz8ke6UmWjR3rKBuK-23" value="Baggage" style="swimlane;childLayout=stackLayout;horizontal=1;startSize=50;horizontalStack=0;rounded=1;fontSize=14;fontStyle=0;strokeWidth=2;resizeParent=0;resizeLast=1;shadow=0;dashed=0;align=center;arcSize=4;whiteSpace=wrap;html=1;strokeColor=light-dark(#432D57,#000000);fillColor=#76608a;fontColor=#ffffff;" vertex="1" parent="1">
          <mxGeometry x="769.5" y="730" width="170" height="140" as="geometry" />
        </mxCell>
        <mxCell id="iStFz8ke6UmWjR3rKBuK-24" value="&lt;div&gt;&lt;font&gt;&lt;span style=&quot;caret-color: rgb(57, 57, 57); color: light-dark(rgb(0, 0, 0), rgb(255, 255, 255));&quot;&gt;baggage_id&lt;/span&gt;&lt;/font&gt;&lt;/div&gt;&lt;div&gt;&lt;font&gt;&lt;span style=&quot;caret-color: rgb(57, 57, 57); color: light-dark(rgb(0, 0, 0), rgb(255, 255, 255));&quot;&gt;booking_id&lt;/span&gt;&lt;/font&gt;&lt;/div&gt;&lt;div&gt;&lt;font&gt;&lt;span style=&quot;caret-color: rgb(57, 57, 57); color: light-dark(rgb(0, 0, 0), rgb(255, 255, 255));&quot;&gt;weight_kg&lt;/span&gt;&lt;/font&gt;&lt;/div&gt;&lt;div&gt;&lt;font&gt;&lt;span style=&quot;caret-color: rgb(57, 57, 57); color: light-dark(rgb(0, 0, 0), rgb(255, 255, 255));&quot;&gt;created_at&lt;/span&gt;&lt;/font&gt;&lt;/div&gt;&lt;div&gt;&lt;font&gt;&lt;span style=&quot;caret-color: rgb(57, 57, 57); color: light-dark(rgb(0, 0, 0), rgb(255, 255, 255));&quot;&gt;updated_at&lt;/span&gt;&lt;/font&gt;&lt;br&gt;&lt;/div&gt;" style="align=left;strokeColor=none;fillColor=none;spacingLeft=4;spacingRight=4;fontSize=12;verticalAlign=top;resizable=0;rotatable=0;part=1;html=1;whiteSpace=wrap;" vertex="1" parent="iStFz8ke6UmWjR3rKBuK-23">
          <mxGeometry y="50" width="170" height="90" as="geometry" />
        </mxCell>
        <mxCell id="iStFz8ke6UmWjR3rKBuK-25" value="Baggage_Checking" style="swimlane;childLayout=stackLayout;horizontal=1;startSize=50;horizontalStack=0;rounded=1;fontSize=14;fontStyle=0;strokeWidth=2;resizeParent=0;resizeLast=1;shadow=0;dashed=0;align=center;arcSize=4;whiteSpace=wrap;html=1;strokeColor=light-dark(#432D57,#000000);fillColor=#76608a;fontColor=#ffffff;" vertex="1" parent="1">
          <mxGeometry x="959.75" y="730" width="170" height="140" as="geometry" />
        </mxCell>
        <mxCell id="iStFz8ke6UmWjR3rKBuK-26" value="&lt;div&gt;&lt;span style=&quot;caret-color: rgb(188, 188, 188);&quot;&gt;baggage_checking_id&lt;/span&gt;&lt;/div&gt;&lt;div&gt;&lt;span style=&quot;caret-color: rgb(188, 188, 188);&quot;&gt;baggage_id&lt;/span&gt;&lt;/div&gt;&lt;div&gt;&lt;span style=&quot;caret-color: rgb(188, 188, 188);&quot;&gt;passenger_id&lt;/span&gt;&lt;/div&gt;&lt;div&gt;&lt;span style=&quot;caret-color: rgb(188, 188, 188);&quot;&gt;check_results&lt;/span&gt;&lt;/div&gt;&lt;div&gt;&lt;span style=&quot;caret-color: rgb(188, 188, 188);&quot;&gt;created_at&lt;/span&gt;&lt;/div&gt;&lt;div&gt;&lt;span style=&quot;caret-color: rgb(188, 188, 188);&quot;&gt;updated_at&lt;/span&gt;&lt;/div&gt;" style="align=left;strokeColor=none;fillColor=none;spacingLeft=4;spacingRight=4;fontSize=12;verticalAlign=top;resizable=0;rotatable=0;part=1;html=1;whiteSpace=wrap;" vertex="1" parent="iStFz8ke6UmWjR3rKBuK-25">
          <mxGeometry y="50" width="170" height="90" as="geometry" />
        </mxCell>
        <mxCell id="iStFz8ke6UmWjR3rKBuK-27" value="Security_Check" style="swimlane;childLayout=stackLayout;horizontal=1;startSize=50;horizontalStack=0;rounded=1;fontSize=14;fontStyle=0;strokeWidth=2;resizeParent=0;resizeLast=1;shadow=0;dashed=0;align=center;arcSize=4;whiteSpace=wrap;html=1;strokeColor=light-dark(#432D57,#000000);fillColor=#76608a;fontColor=#ffffff;" vertex="1" parent="1">
          <mxGeometry x="1149.75" y="730" width="170" height="140" as="geometry" />
        </mxCell>
        <mxCell id="iStFz8ke6UmWjR3rKBuK-28" value="&lt;div&gt;&lt;span style=&quot;caret-color: rgb(75, 75, 75);&quot;&gt;security_check_id&lt;/span&gt;&lt;/div&gt;&lt;div&gt;&lt;span style=&quot;caret-color: rgb(75, 75, 75);&quot;&gt;passenger_id&lt;/span&gt;&lt;/div&gt;&lt;div&gt;&lt;span style=&quot;caret-color: rgb(75, 75, 75);&quot;&gt;check_results&lt;/span&gt;&lt;/div&gt;&lt;div&gt;&lt;span style=&quot;caret-color: rgb(75, 75, 75);&quot;&gt;created_at&lt;/span&gt;&lt;/div&gt;&lt;div&gt;&lt;span style=&quot;caret-color: rgb(173, 173, 173);&quot;&gt;updated_at&lt;/span&gt;&lt;/div&gt;" style="align=left;strokeColor=none;fillColor=none;spacingLeft=4;spacingRight=4;fontSize=12;verticalAlign=top;resizable=0;rotatable=0;part=1;html=1;whiteSpace=wrap;" vertex="1" parent="iStFz8ke6UmWjR3rKBuK-27">
          <mxGeometry y="50" width="170" height="90" as="geometry" />
        </mxCell>
      </root>
    </mxGraphModel>
  </diagram>
</mxfile>
